HIERARCHY
ROOT root
{
	OFFSET 0.000000 0.000000 0.000000
	CHANNELS 6 Xposition Yposition Zposition Zrotation Yrotation Xrotation
	JOINT lhip
	{
		OFFSET 0.058581 -0.082280 -0.017664
		CHANNELS 3 Zrotation Yrotation Xrotation
		JOINT lknee
		{
			OFFSET 0.043451 -0.386469 0.008037
			CHANNELS 3 Zrotation Yrotation Xrotation
			JOINT lankle
			{
				OFFSET -0.014790 -0.426874 -0.037428
				CHANNELS 3 Zrotation Yrotation Xrotation
				JOINT ltoe
				{
					OFFSET 0.041054 -0.060286 0.122042
					CHANNELS 3 Zrotation Yrotation Xrotation
					End Site
					{
						OFFSET 0.000000 0.000000 0.000000
					}
				}
			}
		}
	}
	JOINT rhip
	{
		OFFSET -0.060310 -0.090513 -0.013543
		CHANNELS 3 Zrotation Yrotation Xrotation
		JOINT rknee
		{
			OFFSET -0.043257 -0.383688 -0.004843
			CHANNELS 3 Zrotation Yrotation Xrotation
			JOINT rankle
			{
				OFFSET 0.019056 -0.420046 -0.034562
				CHANNELS 3 Zrotation Yrotation Xrotation
				JOINT rtoe
				{
					OFFSET -0.034840 -0.062106 0.130323
					CHANNELS 3 Zrotation Yrotation Xrotation
					End Site
					{
						OFFSET 0.000000 0.000000 0.000000
					}
				}
			}
		}
	}
	JOINT lowerback
	{
		OFFSET 0.004439 0.124404 -0.038385
		CHANNELS 3 Zrotation Yrotation Xrotation
		JOINT upperback
		{
			OFFSET 0.004488 0.137956 0.026820
			CHANNELS 3 Zrotation Yrotation Xrotation
			JOINT chest
			{
				OFFSET -0.002265 0.056032 0.002855
				CHANNELS 3 Zrotation Yrotation Xrotation
				JOINT lowerneck
				{
					OFFSET -0.013390 0.211636 -0.033468
					CHANNELS 3 Zrotation Yrotation Xrotation
					JOINT upperneck
					{
						OFFSET 0.010113 0.088937 0.050410
						CHANNELS 3 Zrotation Yrotation Xrotation
						End Site
						{
							OFFSET 0.000000 0.000000 0.000000
						}
					}
				}
				JOINT lclavicle
				{
					OFFSET 0.071702 0.114000 -0.018898
					CHANNELS 3 Zrotation Yrotation Xrotation
					JOINT lshoulder
					{
						OFFSET 0.122921 0.045205 -0.019046
						CHANNELS 3 Zrotation Yrotation Xrotation
						JOINT lelbow
						{
							OFFSET 0.255332 -0.015649 -0.022946
							CHANNELS 3 Zrotation Yrotation Xrotation
							JOINT lwrist
							{
								OFFSET 0.265709 0.012698 -0.007375
								CHANNELS 3 Zrotation Yrotation Xrotation
								End Site
								{
									OFFSET 0.000000 0.000000 0.000000
								}
							}
						}
					}
				}
				JOINT rclavicle
				{
					OFFSET -0.082954 0.112472 -0.023707
					CHANNELS 3 Zrotation Yrotation Xrotation
					JOINT rshoulder
					{
						OFFSET -0.113228 0.046853 -0.008472
						CHANNELS 3 Zrotation Yrotation Xrotation
						JOINT relbow
						{
							OFFSET -0.260127 -0.014369 -0.031269
							CHANNELS 3 Zrotation Yrotation Xrotation
							JOINT rwrist
							{
								OFFSET -0.269108 0.006794 -0.006027
								CHANNELS 3 Zrotation Yrotation Xrotation
								End Site
								{
									OFFSET 0.000000 0.000000 0.000000
								}
							}
						}
					}
				}
			}
		}
	}
}
MOTION
Frames: 17
Frame Time: 0.033333
0.499228 0.266727 0.999628 100.670231 1.577491 97.740677 4.352551 2.472333 -10.573028 3.018440 -3.112296 -1.470950 -4.130486 -0.881180 -3.079992 0.000000 -0.000000 0.000000 -2.468485 -2.425695 -10.364888 -4.812679 -4.140344 7.455832 6.477070 -3.910151 -6.777962 0.000000 -0.000000 0.000000 0.805746 0.454763 1.408645 6.044377 -5.158380 -5.019863 7.085954 -0.671516 -4.354474 -5.686574 4.408459 -11.855898 0.690772 7.349288 -18.546415 1.239204 -12.998573 -6.387333 -74.355050 -22.719823 27.460104 -134.604196 -75.429173 177.380954 52.990259 -8.315412 -3.460597 1.119573 9.049937 -4.929659 70.266401 16.846980 25.387098 166.767715 73.935271 -171.347739 -17.876121 -0.062413 -35.351457 
0.499525 0.270404 0.998230 97.913067 1.377528 98.024312 3.856557 3.183653 -10.020203 2.870199 -1.944693 -2.103638 -3.935533 -0.272047 -3.033511 0.000000 -0.000000 0.000000 -3.083271 -1.541048 -11.469330 -4.877257 -2.675696 7.914038 6.765823 -3.654181 -6.622283 0.000000 -0.000000 0.000000 1.155649 -0.741227 1.761404 6.816435 -5.646094 -5.403990 7.858072 -1.755429 -4.268308 -6.448975 4.966650 -11.201841 -0.690619 10.329649 -19.561233 1.541488 -12.110856 -5.639817 -76.622731 -21.816378 28.235249 -128.402097 -74.985518 170.485931 52.573577 -7.437246 -4.385147 0.377958 7.548932 -4.873350 69.317065 15.071666 25.841189 163.416341 73.301081 -176.060643 -17.547575 -0.255148 -36.355484 
0.500352 0.273628 0.999035 95.177132 1.462478 98.220203 3.481748 4.193759 -9.348443 2.988851 -1.017101 -2.818840 -3.962678 0.373247 -2.792819 0.000000 -0.000000 0.000000 -3.330084 -0.609222 -12.287720 -4.865054 -1.129551 8.030374 7.018677 -3.387842 -6.099705 0.000000 -0.000000 0.000000 1.928304 -2.002979 1.771575 7.285616 -6.645517 -6.166533 8.268549 -2.420173 -3.888712 -7.443244 5.865763 -9.553112 -1.593130 13.287678 -19.932551 3.175722 -14.059299 -5.929164 -76.477572 -22.609289 27.997640 -132.087449 -74.946178 174.072276 54.575040 -7.483385 -3.241618 -1.615251 7.993861 -5.405426 69.113092 14.744047 25.387165 166.602954 71.972045 -172.722673 -16.934209 -0.069204 -35.772775 
0.501034 0.276296 1.001242 92.485399 1.766989 98.656759 3.228919 5.004660 -9.266944 3.331279 -0.096217 -2.940721 -4.046201 1.206034 -2.772886 0.000000 -0.000000 0.000000 -3.291579 0.183622 -13.257690 -4.762824 0.188477 7.859979 7.264211 -3.070669 -5.335102 0.000000 -0.000000 0.000000 2.586170 -3.260857 1.336589 7.855019 -7.981171 -6.923185 8.684547 -3.004274 -3.919487 -8.092574 7.522461 -7.423337 -2.673893 16.035747 -19.390026 5.733739 -16.504771 -6.935670 -75.553718 -24.639593 27.212815 -141.398730 -75.147759 -176.687105 56.511058 -7.031086 -1.822470 -3.687956 9.262494 -6.387638 68.935142 16.887267 25.246313 172.180997 71.051422 -167.334318 -18.850574 -0.328150 -34.582053 
0.501937 0.278093 1.003203 89.519703 2.095092 99.006932 3.107767 5.423609 -9.170394 3.676181 1.498211 -2.742147 -4.060506 1.953638 -3.048917 0.000000 -0.000000 0.000000 -3.148660 1.043528 -14.196748 -4.804933 1.125159 7.685003 7.650021 -2.199433 -4.728387 0.000000 -0.000000 0.000000 2.445885 -4.076671 0.545328 8.722191 -9.068985 -7.095233 9.232645 -3.691260 -3.985443 -8.183085 9.942530 -6.016544 -4.019961 17.498466 -18.110771 9.148642 -17.774754 -7.954303 -75.776407 -27.494380 26.424344 -151.287320 -75.817537 -166.882620 56.100156 -7.334663 -1.359972 -5.691939 9.207986 -7.598760 69.786639 20.094836 25.636363 177.635148 71.022180 -161.705203 -19.374721 -0.980890 -33.484769 
0.503538 0.279143 1.004381 86.211031 2.378774 98.901696 3.050137 6.194990 -8.400109 3.861371 3.166126 -2.756814 -4.045969 2.645062 -3.285722 0.000000 -0.000000 0.000000 -2.935606 1.951036 -14.699172 -4.924539 2.420235 7.567557 7.846169 -1.200622 -4.260386 0.000000 -0.000000 0.000000 2.579994 -4.736161 0.498097 9.131027 -9.683761 -7.394949 9.523604 -4.228995 -4.179998 -8.869961 12.005634 -5.180807 -5.326921 19.006528 -17.309326 11.116068 -18.493379 -8.450076 -75.514873 -28.860288 25.485422 -157.748660 -75.657943 -160.803190 55.669177 -7.566992 -1.312194 -7.630571 9.055867 -8.794709 71.804785 21.397379 26.763255 -176.362408 71.099345 -156.174261 -20.026883 -1.416310 -33.382257 
0.505729 0.278588 1.004579 82.358975 2.436418 98.611582 2.879959 6.799518 -7.117920 3.976225 5.130132 -3.045105 -3.822808 3.638719 -3.693250 0.000000 -0.000000 0.000000 -2.975312 3.284372 -15.283109 -4.973841 3.700819 7.929257 7.919840 -0.052387 -4.315114 0.000000 -0.000000 0.000000 2.771927 -5.543798 0.233122 9.140076 -10.227914 -7.057267 9.156751 -4.528130 -4.754886 -9.113727 13.941692 -4.526983 -6.517117 20.757815 -16.630849 10.218090 -18.564066 -7.531807 -74.421183 -27.982997 24.927930 -160.373341 -75.224424 -158.151271 55.688566 -8.953884 -2.085345 -6.892721 9.258078 -8.730957 72.891732 21.249717 28.206206 -174.176906 71.668257 -153.980675 -19.790063 -1.539228 -33.805044 
0.508043 0.276919 1.003579 78.041035 2.690480 98.155536 2.908200 7.514261 -5.567095 4.024335 6.862954 -3.378168 -3.299970 5.334089 -4.446281 0.000000 -0.000000 0.000000 -2.771082 4.896036 -15.946275 -4.880011 5.564944 8.677703 7.786871 0.812403 -4.824967 0.000000 -0.000000 0.000000 3.034789 -6.444500 -0.478911 8.861865 -10.219827 -5.780726 8.801220 -4.569237 -5.363444 -9.173734 15.428929 -3.633772 -7.882001 23.057834 -16.634080 6.821253 -17.786032 -5.859399 -73.614309 -25.553701 24.704498 -153.984674 -74.478929 -164.538560 54.986758 -9.708939 -0.435616 -4.358206 8.948083 -7.382272 72.685946 20.235469 29.049396 -179.512744 72.831625 -159.292096 -21.387884 -0.692267 -32.285716 
0.509468 0.275397 1.000869 73.192987 2.857469 97.248125 2.667576 8.210145 -3.518087 4.255021 8.780085 -3.874309 -2.650838 7.395989 -5.286326 0.000000 -0.000000 0.000000 -2.760917 7.164667 -16.497655 -4.597193 7.360645 9.840620 7.757402 1.676018 -5.540575 0.000000 -0.000000 0.000000 3.226424 -7.699844 -0.121761 8.468471 -9.240444 -4.650429 8.369553 -4.484675 -5.926414 -8.855558 17.160818 -3.485943 -9.086585 25.419384 -16.598493 2.006589 -16.025668 -3.970313 -72.763301 -21.931212 25.042715 -147.634468 -74.229698 -171.163048 54.132702 -10.458001 0.129797 -1.023648 7.766207 -6.209749 72.386918 18.556676 30.298939 175.909777 74.203084 -164.998138 -17.767067 -2.482116 -33.305317 
0.512283 0.272369 0.998020 69.231681 3.227341 96.468049 2.912663 9.173567 -1.617423 4.186104 10.479223 -4.387486 -2.536801 8.505030 -6.019810 0.000000 -0.000000 0.000000 -2.220686 8.575483 -16.691207 -4.532491 8.700963 10.623474 7.680069 2.918740 -6.171503 0.000000 -0.000000 0.000000 3.523662 -8.456348 -0.732315 8.098738 -8.956362 -2.890388 7.953449 -4.474950 -6.534975 -8.204409 18.807853 -3.004453 -10.178419 27.125564 -16.808651 -1.759281 -13.535040 -1.781144 -72.772116 -19.014560 24.548962 -139.452739 -74.009804 -179.544749 52.364141 -11.288888 -0.993497 1.471547 5.601561 -4.497389 71.100810 17.323048 30.139546 159.227077 75.316725 178.802288 -19.798036 0.335680 -34.812878 
0.514550 0.269835 0.996133 65.323015 3.519357 95.739676 3.136666 10.144966 0.172971 3.881632 11.593848 -4.947477 -2.107578 9.757986 -6.216593 0.000000 -0.000000 0.000000 -1.693648 9.467939 -16.784777 -4.298889 10.716762 11.016653 7.825423 3.853219 -6.337305 0.000000 -0.000000 0.000000 3.184392 -8.775115 -1.284324 7.817389 -8.784891 -2.725028 7.916538 -4.598990 -6.329366 -8.101367 19.580994 -2.020324 -9.825416 29.504901 -16.241367 -1.580587 -13.687737 -1.202792 -74.308299 -17.718385 24.864503 -135.175663 -75.197309 175.150038 51.916057 -10.881490 -2.382393 0.126004 4.626216 -4.836245 70.888275 16.097009 29.223839 154.266932 75.984229 173.834172 -12.527499 1.801662 -34.940877 
0.513935 0.270302 0.997251 64.659811 3.673046 95.836210 3.206782 10.410766 0.084842 3.882963 11.685415 -4.949204 -2.337558 9.975363 -6.039225 0.000000 -0.000000 0.000000 -1.440167 9.611603 -16.947061 -4.441269 11.037968 10.727147 8.071977 3.851351 -5.966040 0.000000 -0.000000 0.000000 3.245955 -9.170306 -1.330887 7.634300 -9.123941 -4.608963 7.930762 -4.909030 -5.777302 -7.769946 20.023874 -0.914980 -9.230437 30.508180 -14.791984 -0.104242 -15.587332 -1.989964 -73.698426 -19.858437 24.916710 -142.675898 -75.233814 -177.503334 54.004925 -10.793018 -1.132836 -1.530162 5.922327 -5.559903 69.817508 17.903090 29.140044 158.993397 74.975869 177.991573 -17.087824 1.624814 -35.588560 
0.512778 0.271672 0.999107 65.401394 3.798780 96.218160 3.316277 10.828534 -0.717648 3.962331 11.304117 -4.640139 -2.952404 9.257800 -5.956659 0.000000 -0.000000 0.000000 -1.180609 8.936258 -17.025804 -4.787856 10.748639 10.150057 8.257491 4.086823 -5.523048 0.000000 -0.000000 0.000000 3.273786 -9.376013 -1.298120 7.592059 -9.976652 -6.908531 7.961758 -5.344448 -5.500254 -7.426492 20.531176 0.260083 -8.235359 30.709754 -13.156458 2.103383 -17.745197 -3.473594 -73.254148 -22.495529 24.671579 -153.619434 -75.165059 -166.146534 55.488297 -10.487631 0.118651 -3.403165 7.039062 -6.852415 69.455498 20.652280 28.782669 165.554382 73.884515 -175.761437 -20.852126 -1.144981 -34.934843 
0.511349 0.272108 1.001276 66.735374 3.949586 96.678266 3.730958 11.076653 -1.602495 3.788262 10.819331 -4.271610 -3.439712 7.861749 -5.918958 0.000000 -0.000000 0.000000 -0.834621 8.010986 -17.004970 -5.147412 10.083468 9.555286 8.211048 4.264115 -5.141403 0.000000 -0.000000 0.000000 3.029389 -9.260497 -1.539452 7.746927 -10.842426 -8.661760 7.885892 -5.670440 -5.312004 -7.096892 20.765401 0.758537 -7.339686 30.214879 -11.377961 4.207621 -18.692936 -4.598006 -73.588518 -25.255575 24.164655 -162.116982 -74.980075 -157.031907 55.305395 -11.104867 0.164502 -4.966915 6.807203 -8.168826 69.785084 23.516361 28.020320 168.383231 73.359837 -172.251551 -20.660651 -1.422014 -34.922417 
0.508891 0.271615 1.002635 68.017053 4.032959 97.050612 4.125110 10.511963 -2.334924 3.664491 10.270205 -4.012912 -3.391281 7.354893 -5.789051 0.000000 -0.000000 0.000000 -0.734040 7.786715 -16.984740 -5.133832 9.624348 9.141400 7.850949 3.551996 -5.076255 0.000000 -0.000000 0.000000 2.622519 -9.116831 -2.209511 7.311271 -10.966596 -8.802599 7.539724 -5.722796 -5.282522 -6.799239 19.972308 0.310342 -6.278099 29.847303 -10.406597 4.642555 -18.973407 -5.176169 -73.746442 -26.515575 24.156003 -165.637879 -74.626147 -153.209037 55.685851 -11.054426 0.715073 -5.788010 7.144402 -8.728435 70.338513 24.401262 28.177973 174.857904 72.761427 -165.471859 -19.756446 -1.421714 -34.368894 
0.506359 0.269005 1.003215 69.446267 4.132916 97.037217 4.793287 9.967327 -2.604953 3.416867 9.905701 -3.841579 -3.509627 6.841462 -5.746271 0.000000 -0.000000 0.000000 -0.515007 7.560494 -16.601650 -5.081793 8.818927 8.959563 7.630114 3.210652 -5.252453 0.000000 -0.000000 0.000000 1.917727 -8.734268 -2.655579 6.663583 -10.830316 -7.898461 6.889773 -5.446382 -5.570986 -5.847483 19.152087 -0.826517 -5.132798 28.362482 -9.565795 2.512554 -18.197962 -4.340185 -73.789304 -25.486612 24.957837 -162.795564 -74.062468 -155.407727 54.268066 -11.905382 0.864712 -3.784438 6.178441 -8.303144 70.027802 23.011988 27.973195 171.115568 71.934705 -167.710038 -17.774841 0.542004 -34.380505 
0.503981 0.264531 1.003117 70.966789 4.234066 96.649488 5.553377 9.690048 -2.536053 3.271014 9.420373 -3.508682 -3.395089 6.343331 -5.978312 0.000000 -0.000000 0.000000 -0.205676 7.273308 -15.938880 -4.912600 8.049097 9.169934 7.191561 2.966064 -5.834108 0.000000 -0.000000 0.000000 1.646469 -9.183697 -2.582289 5.708410 -10.779363 -7.806166 5.802429 -4.239450 -5.125426 -5.158614 17.948014 -1.359584 -4.103429 26.939913 -9.650052 -2.132234 -15.167129 -2.709611 -72.287868 -22.028197 25.083902 -151.732810 -73.326368 -166.220169 52.562366 -12.719512 0.358523 0.400071 6.045631 -6.098810 68.968296 20.636447 28.430071 163.207362 72.237392 -175.442023 -18.286659 0.254899 -34.298981 
